PathFileType	4	(X/Y/Z)	/Users/itak/Documents/Research/Walk-IL/dataset/trc/00163_00008.trc
DataRate	CameraRate	NumFrames	NumMarkers	Units	OrigDataRate	OrigDataStartFrame	OrigNumFrames
100.000000	100.000000	4	53	mm	100.000000	483	552
Frame#	Time	RPSI			LPSI			L3			STRN			T10			C7			CLAV			RBAK			LBAK			LSHO			LUPA			LAEL			LAOL			LWTS			LWPS			LFRA			LIFD			LHPS			LHTS			RSHO			RUPA			RAEL			RAOL			RWTS			RWPS			RFRA			RIFD			RHTS			RHPS			RBHD			LFHD			RFHD			LBHD			LHIP			RHIP			RASI			LASI			LKNE			LTHI			LANK			LTIP			LTOE			LMT1			LMT5			LHEE			RKNE			RTHI			RANK			RTIP			RTOE			RMT1			RMT5			RHEE			
		X1	Y1	Z1	X2	Y2	Z2	X3	Y3	Z3	X4	Y4	Z4	X5	Y5	Z5	X6	Y6	Z6	X7	Y7	Z7	X8	Y8	Z8	X9	Y9	Z9	X10	Y10	Z10	X11	Y11	Z11	X12	Y12	Z12	X13	Y13	Z13	X14	Y14	Z14	X15	Y15	Z15	X16	Y16	Z16	X17	Y17	Z17	X18	Y18	Z18	X19	Y19	Z19	X20	Y20	Z20	X21	Y21	Z21	X22	Y22	Z22	X23	Y23	Z23	X24	Y24	Z24	X25	Y25	Z25	X26	Y26	Z26	X27	Y27	Z27	X28	Y28	Z28	X29	Y29	Z29	X30	Y30	Z30	X31	Y31	Z31	X32	Y32	Z32	X33	Y33	Z33	X34	Y34	Z34	X35	Y35	Z35	X36	Y36	Z36	X37	Y37	Z37	X38	Y38	Z38	X39	Y39	Z39	X40	Y40	Z40	X41	Y41	Z41	X42	Y42	Z42	X43	Y43	Z43	X44	Y44	Z44	X45	Y45	Z45	X46	Y46	Z46	X47	Y47	Z47	X48	Y48	Z48	X49	Y49	Z49	X50	Y50	Z50	X51	Y51	Z51	X52	Y52	Z52	X53	Y53	Z53	

484	4.83	738.8509521484375	1040.699462890625	49.84318161010742	744.6321411132812	1044.248657226562	-74.10564422607422	738.1653442382812	1079.99853515625	-9.063701629638672	976.9546508789062	1310.8193359375	-0.3697720766067505	686.6286010742188	1236.897705078125	-13.83181285858154	732.9498291015625	1511.65576171875	-23.3370304107666	940.577392578125	1422.028686523438	-11.76459217071533	675.1596069335938	1331.488891601562	85.12210845947266	731.5010375976562	1485.12109375	-123.3219451904297	811.4160766601562	1476.918212890625	-199.3247985839844	792.4534912109375	1341.06591796875	-270.6898498535156	827.93896484375	1127.95458984375	-286.6045532226562	792.0578002929688	1105.988037109375	-209.3572692871094	965.0526123046875	909.6474609375	-264.9490356445312	884.9593505859375	883.0507202148438	-306.6415100097656	852.8485717773438	1020.105346679688	-302.6694641113281	994.5076293945312	721.5294189453125	-255.037841796875	912.6947021484375	816.1196899414062	-308.298583984375	982.4321899414062	833.1610717773438	-288.6820373535156	791.798095703125	1494.9814453125	159.5981903076172	775.65380859375	1428.218994140625	229.3435211181641	799.6993408203125	1144.042846679688	305.1771545410156	800.2772216796875	1131.371459960938	209.4420623779297	1009.054016113281	980.2415771484375	294.0879211425781	945.3367309570312	934.7273559570312	336.072021484375	846.51416015625	1080.93408203125	325.82666015625	1102.587890625	816.0189208984375	275.9983825683594	1068.869873046875	905.32861328125	304.5130615234375	1003.759765625	869.8689575195312	334.3865661621094	811.5601196289062	1696.197265625	46.5176887512207	957.2915649414062	1706.256958007812	-114.02783203125	979.6646728515625	1722.68896484375	12.2001256942749	779.634521484375	1687.238647460938	-87.70900726318359	856.2762451171875	993.9937133789062	-190.4068450927734	893.0243530273438	1013.177612304688	180.2406005859375	970.904541015625	1048.033569335938	127.5131378173828	974.35546875	1045.767700195312	-132.6231842041016	938.1090087890625	502.9737243652344	-178.7387390136719	921.6856689453125	645.1467895507812	-198.2721557617188	839.2732543945312	39.45303726196289	-196.8922424316406	890.39501953125	277.0065612792969	-199.9490509033203	1059.807983398438	37.14665222167969	-189.5273895263672	1013.332885742188	40.11135101318359	-137.9479370117188	943.767822265625	31.77946662902832	-244.94287109375	795.4791870117188	39.68385314941406	-123.8317031860352	932.7327880859375	514.4728393554688	126.1315383911133	962.2619018554688	784.4354248046875	174.7522430419922	824.9263305664062	37.4732780456543	100.6870498657227	940.6450805664062	393.4289245605469	99.24954986572266	1049.774658203125	38.32295227050781	70.92057800292969	993.9036865234375	39.74236679077148	24.37314796447754	933.50439453125	30.60709762573242	139.1456604003906	773.9568481445312	41.84083938598633	32.73388290405273	
485	4.84	741.7350463867188	1040.550170898438	49.17306900024414	747.2778930664062	1044.073364257812	-74.77747344970703	740.8961181640625	1079.769287109375	-9.818007469177246	979.399169921875	1310.776000976562	-1.521558046340942	689.2476806640625	1236.610595703125	-14.95438861846924	735.2819213867188	1511.39599609375	-24.54961013793945	942.9639282226562	1421.978881835938	-12.86463832855225	677.4718017578125	1331.154296875	83.78091430664062	733.9015502929688	1484.916259765625	-124.5630264282227	813.8308715820312	1476.795532226562	-200.4921875	795.2424926757812	1341.044311523438	-272.0655212402344	831.3499755859375	1127.993041992188	-288.5036926269531	795.3523559570312	1105.801147460938	-211.4054870605469	969.4041748046875	910.3677978515625	-267.3485107421875	889.330810546875	883.1279296875	-308.5669860839844	856.6507568359375	1020.231079101562	-304.6945495605469	999.8286743164062	723.1385498046875	-256.0837097167969	917.3787841796875	816.2349243164062	-309.8823852539062	987.1512451171875	833.8866577148438	-290.8173217773438	793.9495239257812	1494.655151367188	158.4527435302734	777.6217041015625	1427.731201171875	228.0123291015625	800.5859375	1143.151733398438	302.5787963867188	801.5881958007812	1130.9638671875	206.8325958251953	1008.699340820312	977.724365234375	291.6646728515625	944.4853515625	932.6547241210938	333.3459777832031	846.8873901367188	1079.69580078125	323.1949768066406	1100.869750976562	812.7723999023438	273.2843017578125	1067.838134765625	902.2670288085938	302.0014343261719	1002.377014160156	867.2876586914062	331.6029663085938	813.9486083984375	1696.002685546875	45.46234130859375	959.6488647460938	1706.118530273438	-115.1105880737305	982.0697021484375	1722.389404296875	11.13247680664062	782.0057983398438	1687.225341796875	-88.75064849853516	858.9075317382812	993.9326171875	-191.0948028564453	896.3131103515625	1013.305480957031	179.2331390380859	974.0888671875	1048.2412109375	126.307373046875	977.0081787109375	1045.680541992188	-133.7953796386719	937.21533203125	502.8442993164062	-178.5992889404297	921.9351806640625	644.7893676757812	-198.5473937988281	839.2171020507812	39.62007141113281	-196.6369323730469	890.03466796875	276.9015502929688	-199.6536254882812	1059.940673828125	36.94142532348633	-189.5252227783203	1013.355895996094	39.89813613891602	-137.8915252685547	943.6521606445312	31.90488433837891	-244.9121551513672	795.4581298828125	39.61344146728516	-123.5724945068359	933.258544921875	514.593994140625	125.6939239501953	964.653564453125	784.4203491210938	173.8826293945312	824.9542846679688	37.54385757446289	100.5265197753906	940.8441772460938	393.5982666015625	98.91780853271484	1049.81005859375	38.33576202392578	70.94437408447266	993.9662475585938	39.72736740112305	24.35484504699707	933.5253295898438	30.67874526977539	139.060546875	774.007080078125	41.89067077636719	32.56132125854492	
486	4.850000000000001	744.5469360351562	1040.518920898438	48.52046203613281	749.8248291015625	1044.000732421875	-75.43634033203125	743.554931640625	1079.637084960938	-10.52992534637451	981.7830810546875	1310.8173828125	-2.744109153747559	691.8258056640625	1236.360961914062	-15.99257183074951	737.534423828125	1511.178100585938	-25.74058532714844	945.281982421875	1422.010009765625	-14.02940559387207	679.7762451171875	1330.880004882812	82.51333618164062	736.1605224609375	1484.740844726562	-125.7639694213867	816.0720825195312	1476.754516601562	-201.6624298095703	797.8453369140625	1341.118041992188	-273.46484375	834.5942993164062	1128.136474609375	-290.4202270507812	798.4658813476562	1105.7109375	-213.4679565429688	973.6550903320312	911.2538452148438	-269.7825927734375	893.599853515625	883.3007202148438	-310.4993896484375	860.2979125976562	1020.455261230469	-306.7290954589844	1005.1640625	725.099609375	-256.9151306152344	922.0116577148438	816.4463500976562	-311.432373046875	991.8080444335938	834.779296875	-292.9515075683594	796.1153564453125	1494.406494140625	157.3019409179688	779.6172485351562	1427.331420898438	226.6824340820312	801.4094848632812	1142.348266601562	299.8754577636719	802.8172607421875	1130.669067382812	204.0990905761719	1008.030212402344	974.9973754882812	289.2205200195312	943.2472534179688	930.4979248046875	330.5881042480469	847.0692138671875	1078.516723632812	320.4663696289062	1098.557983398438	809.1641235351562	270.6093139648438	1066.361572265625	898.8967895507812	299.498291015625	1000.485656738281	864.526611328125	328.8150329589844	816.2254638671875	1695.82373046875	44.39518356323242	961.9557495117188	1706.077026367188	-116.1445388793945	984.3717041015625	1722.142578125	10.12519454956055	784.3167114257812	1687.280151367188	-89.81723785400391	861.4182739257812	993.9963989257812	-191.78662109375	899.4825439453125	1013.432983398438	178.1957855224609	977.19873046875	1048.46826171875	125.109619140625	979.543701171875	1045.682495117188	-134.9539184570312	936.414306640625	502.7628784179688	-178.5133056640625	922.2210693359375	644.5032348632812	-198.9089813232422	839.1925659179688	39.74391555786133	-196.4650115966797	889.7705078125	276.8544311523438	-199.4578094482422	1060.033569335938	36.86652374267578	-189.4943084716797	1013.365661621094	39.73149490356445	-137.8407592773438	943.585693359375	32.02477264404297	-244.878173828125	795.4404296875	39.56355285644531	-123.409309387207	933.5453491210938	514.7279052734375	125.2819213867188	966.8548583984375	784.388427734375	173.0146789550781	824.9667358398438	37.59624862670898	100.3486404418945	940.8536987304688	393.8028259277344	98.61419677734375	1049.838012695312	38.36491775512695	70.96993255615234	994.02685546875	39.72126388549805	24.3470630645752	933.5409545898438	30.74615097045898	138.9813842773438	774.0586547851562	41.9135856628418	32.37747955322266	
487	4.86	747.2958374023438	1040.603515625	47.86898040771484	752.2896728515625	1044.005615234375	-76.10372161865234	746.1537475585938	1079.588745117188	-11.22139453887939	984.1168823242188	1310.926879882812	-4.030394077301025	694.3595581054688	1236.138427734375	-16.95551300048828	739.711181640625	1510.991333007812	-26.90415954589844	947.5375366210938	1422.103637695312	-15.25292682647705	682.08447265625	1330.650268554688	81.32493591308594	738.2846069335938	1484.58203125	-126.9211807250977	818.1476440429688	1476.776489257812	-202.8266906738281	800.263427734375	1341.267944335938	-274.8780212402344	837.6723022460938	1128.371948242188	-292.3430480957031	801.3898315429688	1105.700439453125	-215.5372009277344	977.7996826171875	912.2825317382812	-272.22509765625	897.7696533203125	883.564208984375	-312.4367370605469	863.7965698242188	1020.770080566406	-308.7638854980469	1010.474914550781	727.3626708984375	-257.557373046875	926.6009521484375	816.7617797851562	-312.9702758789062	996.4005126953125	835.8277587890625	-295.0782165527344	798.3049926757812	1494.222778320312	156.1551208496094	781.6498413085938	1427.006103515625	225.3648223876953	802.1881713867188	1141.627807617188	297.0926513671875	803.977783203125	1130.466430664062	201.2606353759766	1007.061950683594	972.0689697265625	286.762939453125	941.6425170898438	928.263427734375	327.8096923828125	847.0943603515625	1077.390625	317.6640625	1095.6728515625	805.2167358398438	267.9727172851562	1064.457153320312	895.2340698242188	297.0061340332031	998.1063232421875	861.6005249023438	326.0281066894531	818.391845703125	1695.65234375	43.32185745239258	964.2056884765625	1706.119506835938	-117.1314926147461	986.5698852539062	1721.944213867188	9.173989295959473	786.5594482421875	1687.386352539062	-90.90406799316406	863.8084716796875	994.13623046875	-192.4982299804688	902.5140991210938	1013.553894042969	177.1303253173828	980.222412109375	1048.68896484375	123.9205017089844	981.9783935546875	1045.726928710938	-136.0951538085938	935.6959228515625	502.6936950683594	-178.4875030517578	922.574462890625	644.2613525390625	-199.3365020751953	839.1870727539062	39.82196807861328	-196.3675079345703	889.5767822265625	276.8370971679688	-199.3500213623047	1060.101318359375	36.85330200195312	-189.4447784423828	1013.371154785156	39.5966796875	-137.7953643798828	943.556640625	32.12370300292969	-244.8499298095703	795.4202880859375	39.52338790893555	-123.3264083862305	933.61767578125	514.86083984375	124.896484375	968.8642578125	784.3326416015625	172.1493072509766	824.9644775390625	37.63355255126953	100.1679153442383	940.6951904296875	394.0301818847656	98.33041381835938	1049.854248046875	38.40948867797852	70.99625396728516	994.0796508789062	39.72441482543945	24.34878921508789	933.5503540039062	30.80702781677246	138.9124450683594	774.1065673828125	41.90971755981445	32.19131088256836	
